<svg xmlns="http://www.w3.org/2000/svg" xmlns:xlink="http://www.w3.org/1999/xlink" width="1200" zoomAndPan="magnify" viewBox="0 0 900 30.000001" height="40" preserveAspectRatio="xMidYMid meet" version="1.0"><defs><clipPath id="2724b1485c"><path d="M 435.496094 0 L 885.484375 0 L 885.484375 29.03125 L 435.496094 29.03125 Z M 435.496094 0 " clip-rule="nonzero"/></clipPath><clipPath id="64948aff37"><path d="M 450.011719 0 L 870.96875 0 C 874.816406 0 878.511719 1.53125 881.230469 4.25 C 883.953125 6.972656 885.484375 10.667969 885.484375 14.515625 C 885.484375 18.367188 883.953125 22.058594 881.230469 24.78125 C 878.511719 27.503906 874.816406 29.03125 870.96875 29.03125 L 450.011719 29.03125 C 446.160156 29.03125 442.46875 27.503906 439.746094 24.78125 C 437.023438 22.058594 435.496094 18.367188 435.496094 14.515625 C 435.496094 10.667969 437.023438 6.972656 439.746094 4.25 C 442.46875 1.53125 446.160156 0 450.011719 0 Z M 450.011719 0 " clip-rule="nonzero"/></clipPath></defs><g clip-path="url(#2724b1485c)"><g clip-path="url(#64948aff37)"><path fill="#ffffff" d="M 435.496094 0 L 885.484375 0 L 885.484375 29.03125 L 435.496094 29.03125 Z M 435.496094 0 " fill-opacity="1" fill-rule="nonzero"/></g></g></svg>